<?xml version="1.0" standalone="no"?>
<!DOCTYPE svg PUBLIC "-//W3C//DTD SVG 20010904//EN"
 "http://www.w3.org/TR/2001/REC-SVG-20010904/DTD/svg10.dtd">
<svg version="1.0" xmlns="http://www.w3.org/2000/svg"
 width="612.000000pt" height="792.000000pt" viewBox="0 0 612.000000 792.000000"
 preserveAspectRatio="xMidYMid meet">
<metadata>
Created by potrace 1.15, written by Peter Selinger 2001-2017
</metadata>
<g id="design-freepik" transform="translate(0.000000,792.000000) scale(0.100000,-0.100000)"
fill="#000000" stroke="none">
<path d="M2544 6521 c-120 -54 -201 -184 -244 -391 l-14 -65 -13 99 c-8 54
-24 128 -36 165 -19 57 -26 66 -49 69 -18 2 -37 -7 -62 -29 -68 -59 -115 -166
-137 -309 -17 -107 -5 -143 71 -225 90 -97 90 -96 32 -163 -63 -73 -121 -160
-162 -241 -17 -35 -53 -92 -79 -125 -25 -34 -68 -104 -94 -156 -36 -72 -71
-122 -146 -206 -119 -133 -172 -173 -376 -284 -226 -123 -301 -198 -359 -358
-91 -254 -26 -640 140 -830 48 -55 143 -128 206 -158 21 -10 50 -36 65 -58 95
-145 224 -242 370 -280 98 -26 248 -21 339 9 103 35 140 55 225 123 l74 58 0
-195 c0 -173 3 -206 23 -281 30 -108 110 -263 175 -336 l50 -56 -11 -126 c-17
-191 -50 -302 -157 -524 l-46 -98 -1165 0 c-769 0 -1164 -3 -1164 -10 0 -7
393 -10 1159 -10 l1160 0 -28 -83 c-16 -46 -36 -127 -46 -181 -15 -83 -16
-106 -5 -153 26 -119 128 -172 349 -181 242 -9 353 43 426 199 14 30 28 69 31
87 6 33 13 36 52 26 21 -6 22 -11 22 -99 0 -104 16 -169 56 -227 115 -165 494
-161 642 7 70 80 77 116 76 378 l-2 227 38 0 c43 0 41 6 60 -135 19 -136 38
-191 86 -244 100 -112 268 -125 445 -36 128 65 204 232 170 378 l-9 37 714 0
c469 0 714 3 714 10 0 7 -245 10 -716 10 -703 0 -716 0 -721 20 -3 10 -25 63
-50 117 -112 244 -161 383 -203 581 l-22 101 80 78 c179 175 253 370 238 623
-12 193 -40 292 -121 430 -30 51 -55 94 -55 96 0 9 100 53 150 67 85 24 152
29 216 18 75 -14 195 -72 228 -111 22 -27 26 -28 40 -14 37 36 4 139 -67 212
l-41 42 35 0 c32 0 95 -15 142 -35 25 -10 22 12 -8 51 -13 17 -48 44 -77 59
l-53 27 53 -6 c29 -4 60 -10 69 -13 12 -5 14 -3 8 7 -11 17 -148 80 -177 81
-22 0 -22 1 -3 9 25 11 171 11 243 1 64 -9 71 0 53 60 -21 68 -39 79 -133 79
-46 0 -110 -7 -143 -14 -33 -8 -61 -13 -63 -12 -5 6 208 86 255 96 25 6 50 13
55 16 13 8 -18 58 -61 97 -57 51 -98 60 -190 41 -174 -36 -307 -103 -424 -213
-107 -101 -165 -192 -245 -383 l-11 -26 -78 25 c-69 22 -90 24 -178 20 -55 -3
-183 -22 -285 -41 -230 -44 -320 -52 -435 -37 -86 12 -205 54 -205 72 0 5 15
9 33 9 48 0 102 18 122 40 18 19 17 20 -3 20 -12 0 -22 5 -22 10 0 6 7 10 16
10 38 0 99 26 131 57 35 32 37 53 4 53 -23 0 -155 65 -171 85 -8 10 6 7 47 -9
71 -29 129 -40 138 -27 8 14 -42 91 -59 91 -21 0 -119 112 -150 172 -23 45
-12 43 14 -2 17 -29 25 2 23 93 -1 88 -27 228 -59 321 -8 22 -13 41 -11 43 2
2 25 -28 51 -67 25 -38 49 -70 52 -70 7 0 0 55 -11 83 -5 12 -3 17 6 15 20 -4
14 108 -9 201 -10 39 -17 71 -16 71 2 0 15 -22 31 -50 40 -71 57 -65 28 10 -7
19 -14 29 -14 21 -1 -8 -18 12 -38 43 -21 31 -40 56 -44 56 -4 0 0 -26 8 -57
17 -68 43 -210 43 -238 -1 -13 -13 -1 -37 38 -20 31 -38 56 -39 54 -2 -2 10
-36 27 -76 34 -80 34 -113 1 -60 -25 41 -62 77 -62 61 0 -6 14 -75 30 -153 26
-123 52 -289 45 -297 -1 -1 -15 16 -30 38 -23 33 -30 38 -37 26 -10 -17 5 -84
29 -130 8 -16 36 -52 62 -79 49 -54 45 -54 -34 1 l-50 34 43 -41 c24 -22 67
-49 95 -59 28 -11 58 -30 66 -42 l16 -23 -45 6 c-25 4 -80 24 -122 46 -63 31
-75 35 -67 19 20 -38 91 -100 142 -125 l52 -25 -42 6 c-24 4 -68 17 -99 31
-35 16 -52 20 -44 11 18 -22 88 -46 176 -60 l79 -12 -40 -27 c-48 -31 -109
-46 -189 -47 -71 0 -67 -7 16 -30 l63 -17 -40 -12 c-67 -19 -138 -14 -164 11
-50 46 -88 191 -114 438 -16 144 -8 444 17 675 9 77 16 202 16 277 0 158 -12
142 112 153 37 3 74 8 81 11 7 2 34 -14 60 -36 50 -44 64 -71 23 -44 -14 8
-48 22 -76 29 l-50 13 33 -61 c19 -34 64 -111 101 -172 36 -60 66 -121 66
-134 0 -23 -3 -21 -32 17 -39 51 -54 54 -31 7 9 -19 20 -32 24 -30 4 3 15 -7
25 -22 16 -26 18 -26 25 -8 17 47 -22 137 -122 287 -52 77 -57 89 -37 83 32
-10 77 -34 112 -58 l28 -20 -7 24 c-9 31 -54 97 -74 110 -12 8 -10 9 11 5 14
-3 34 -8 45 -12 10 -3 -2 6 -27 19 l-44 25 54 27 c127 63 167 123 177 267 5
73 3 89 -16 126 -45 87 -124 94 -244 19 -40 -25 -82 -56 -92 -68 -11 -12 -38
-33 -60 -47 -22 -13 -52 -36 -67 -50 -19 -17 -28 -21 -28 -11 1 28 59 161 100
230 24 38 40 72 38 75 -3 2 -18 0 -34 -6 l-29 -11 25 26 24 26 -45 -16 c-24
-9 -61 -29 -81 -46 -44 -34 -45 -33 -18 21 27 54 25 59 -11 24 -31 -29 -31
-29 -24 -4 4 14 14 40 21 59 11 27 12 42 3 68 -11 34 -11 34 -31 16 -11 -10
-33 -43 -49 -73 -29 -57 -40 -55 -15 3 12 29 11 36 -5 67 -11 19 -19 40 -19
47 0 31 -73 0 -134 -56 l-29 -26 19 34 c10 18 36 54 58 80 28 33 22 29 -22
-16 -33 -34 -77 -92 -98 -129 -22 -39 -40 -62 -42 -53 -3 8 -12 30 -20 49 -9
21 -16 70 -18 120 -1 47 -7 97 -13 113 -8 20 -7 47 5 108 16 85 16 140 -1 145
-5 2 -29 -5 -51 -15z m46 -29 c0 -26 -13 -113 -25 -169 -3 -12 -22 -34 -42
-48 -21 -14 -33 -25 -28 -25 6 0 23 9 39 19 17 11 33 18 38 15 14 -9 9 -193
-6 -222 -29 -55 -96 -98 -168 -108 -53 -7 -98 9 -98 34 0 36 51 247 61 250 5
2 7 8 4 12 -6 10 46 119 79 163 21 29 122 107 138 107 4 0 8 -13 8 -28z m-371
-207 c55 -182 65 -455 19 -484 -11 -7 -23 -9 -26 -6 -4 4 -11 95 -15 203 -11
244 -21 276 -69 211 -31 -41 -41 -127 -24 -206 16 -78 49 -170 71 -199 8 -10
4 7 -10 40 -57 130 -72 283 -35 344 11 18 24 31 29 28 5 -3 12 -68 16 -143 4
-76 11 -171 16 -212 7 -61 6 -79 -6 -98 -21 -31 -30 -29 -46 9 -7 17 -40 60
-73 95 -54 59 -60 69 -64 116 -7 95 39 237 106 325 27 35 73 65 84 54 3 -4 16
-38 27 -77z m677 -254 c-9 -25 -18 -66 -21 -91 -5 -40 -4 -42 6 -20 86 182
109 218 109 167 0 -13 -6 -42 -14 -63 -7 -22 -16 -64 -20 -94 l-7 -55 26 40
c15 22 24 32 21 22 -23 -72 -22 -72 38 -23 59 48 94 62 59 24 -11 -13 -24 -29
-28 -37 -9 -16 0 -12 48 21 15 11 27 17 27 14 0 -3 -15 -34 -34 -68 -38 -69
-86 -203 -86 -239 0 -21 3 -20 40 16 22 21 40 36 40 32 0 -3 -17 -33 -39 -66
l-39 -60 -31 64 c-43 86 -117 152 -239 212 -90 44 -97 50 -100 80 -6 61 57
151 150 213 l61 41 24 -42 c23 -40 23 -44 9 -88z m-287 -10 c17 -51 14 -177
-5 -217 -20 -42 -118 -134 -169 -158 -37 -18 -123 -25 -144 -12 -12 8 -14 117
-4 243 5 75 7 81 24 73 23 -13 95 -13 142 1 43 11 113 69 123 101 7 24 17 15
33 -31z m77 -212 c8 -16 14 -56 14 -93 0 -57 -4 -69 -32 -108 -23 -30 -54 -54
-103 -78 -63 -32 -78 -35 -152 -35 -96 0 -117 13 -128 82 l-7 42 55 -6 c45 -5
64 -1 108 19 71 32 144 105 176 174 27 60 39 60 69 3z m801 14 c25 -33 28 -44
27 -112 -1 -84 -31 -169 -75 -210 -54 -51 -188 -103 -308 -119 -66 -9 -62 -12
-76 54 l-6 31 83 13 c170 26 250 65 289 141 23 47 22 107 -3 122 -13 9 -36 1
-105 -33 -71 -35 -105 -60 -176 -132 -49 -48 -90 -88 -92 -88 -1 0 -5 10 -8
22 -8 27 3 48 69 130 88 109 245 218 316 218 31 0 42 -6 65 -37z m-706 -44
c208 -111 270 -270 256 -663 -4 -94 -11 -223 -17 -286 -15 -165 -16 -498 -1
-615 30 -237 70 -362 139 -433 124 -127 348 -153 692 -81 132 28 177 33 300
33 134 1 148 -1 190 -23 72 -37 127 -88 182 -165 115 -162 161 -317 160 -536
-1 -303 -107 -477 -413 -679 -103 -68 -312 -171 -348 -171 -14 0 -14 -3 5 99
19 100 19 100 -87 132 -60 18 -75 19 -148 9 -118 -16 -231 -59 -308 -116 -17
-13 -34 -24 -36 -24 -2 0 0 20 6 45 27 117 -50 375 -287 968 -147 366 -176
450 -211 612 -37 174 -49 295 -49 515 l0 205 49 120 c26 66 63 153 82 194 18
41 32 76 30 78 -6 5 -111 -222 -162 -352 -79 -200 -140 -397 -210 -680 -79
-317 -102 -389 -163 -510 -62 -124 -104 -189 -171 -258 -246 -259 -623 -274
-866 -33 -40 39 -77 81 -84 93 l-11 22 42 -15 c23 -8 49 -21 58 -29 8 -7 45
-28 81 -45 174 -81 404 -80 574 4 135 67 256 207 326 375 17 42 53 120 81 174
27 54 47 101 45 104 -3 3 -18 -19 -33 -49 -83 -165 -232 -342 -357 -425 -138
-92 -320 -140 -484 -129 -218 15 -440 104 -561 225 -70 69 -125 161 -156 256
-21 66 -46 216 -46 275 0 46 0 47 42 59 59 18 159 120 181 185 22 65 21 102
-3 126 -24 24 -38 25 -68 4 -21 -14 -22 -14 -22 10 0 14 -4 28 -10 31 -17 10
-12 19 34 67 27 29 108 84 214 147 235 139 368 249 450 373 13 21 26 38 27 38
1 0 2 -33 2 -72 1 -125 42 -188 123 -188 47 0 85 25 129 83 92 123 153 289
155 420 1 85 0 90 -27 113 -30 26 -77 31 -122 14 -23 -9 -25 -8 -16 9 18 33
64 55 128 60 l62 6 -12 25 c-10 20 -20 25 -47 25 -19 -1 -46 -4 -59 -9 -23 -8
-22 -6 10 40 36 52 197 224 209 224 4 0 9 -54 12 -121 6 -134 16 -159 79 -192
71 -38 212 -7 293 63 59 52 80 102 81 192 0 43 2 78 4 78 2 0 29 -14 62 -31z
m635 -64 c19 -48 -29 -131 -95 -164 -31 -16 -227 -71 -253 -71 -17 0 57 82
118 131 53 42 193 119 217 119 4 0 10 -7 13 -15z m-1325 -351 c18 -21 24 -121
11 -181 -6 -28 -21 -76 -33 -109 l-22 -59 -18 43 c-62 145 -268 43 -269 -133
0 -31 8 -66 20 -90 l20 -40 -24 27 c-50 56 -57 185 -15 290 37 95 139 216 212
252 42 20 101 21 118 0z m-112 -259 c29 -14 51 -58 51 -100 0 -29 -63 -133
-105 -172 -44 -42 -91 -45 -126 -7 -21 22 -24 35 -24 98 0 62 4 78 27 113 26
40 94 83 131 83 10 0 31 -7 46 -15z m830 -1035 c36 -250 77 -389 236 -785 141
-352 255 -669 280 -775 8 -36 15 -101 15 -145 0 -88 -9 -111 -74 -178 -39 -41
-41 -51 -26 -91 9 -25 8 -26 -23 -26 -19 0 -83 9 -144 20 -369 66 -609 264
-713 586 -39 123 -57 306 -42 437 10 93 12 98 70 184 117 175 151 261 213 546
53 249 99 429 146 580 l38 122 6 -195 c4 -107 12 -233 18 -280z m-1829 294 c0
-28 8 -30 36 -9 44 33 81 2 68 -58 -17 -83 -83 -167 -165 -212 l-52 -28 6 70
c6 71 46 209 73 251 18 27 34 20 34 -14z m4231 -40 c27 -14 93 -83 86 -90 -2
-3 -33 -9 -68 -15 -233 -36 -494 -186 -632 -364 -18 -22 4 -4 48 41 44 44 109
100 144 123 63 43 203 113 251 125 14 4 -8 -9 -49 -29 -40 -19 -101 -53 -135
-76 -60 -40 -196 -166 -196 -181 0 -4 19 13 43 39 112 121 283 199 463 210
121 8 138 3 158 -47 9 -22 16 -44 16 -49 0 -5 -28 -2 -62 6 -80 19 -191 12
-314 -20 -115 -30 -173 -59 -221 -110 -37 -40 -37 -40 -4 -13 110 88 283 115
401 63 35 -16 34 -16 -40 -11 -88 7 -186 -13 -258 -51 -26 -15 -38 -23 -27
-19 11 4 45 16 75 27 102 36 235 10 320 -62 l25 -21 -30 11 c-22 9 -215 20
-215 13 0 -1 22 -15 48 -31 60 -37 95 -82 117 -150 26 -80 16 -93 -25 -31 -61
92 -186 155 -325 162 -38 2 -56 2 -40 -1 139 -20 260 -70 315 -129 l35 -38
-38 28 c-140 103 -329 113 -471 25 -27 -16 -51 -28 -53 -25 -3 3 17 29 43 59
31 34 26 31 -14 -11 l-62 -65 -53 49 c-28 27 -53 52 -55 55 -6 14 58 140 111
222 122 186 266 299 468 367 119 40 163 43 220 14z m-2867 -796 c-88 -173
-248 -308 -419 -353 -118 -30 -317 -16 -417 30 l-33 15 30 -5 c216 -35 412 -3
576 95 79 47 191 148 245 221 20 27 38 49 40 49 2 0 -8 -23 -22 -52z m1535
-1167 c52 -19 52 -18 27 -131 -34 -152 -48 -337 -48 -612 l0 -268 -32 0 c-43
1 -127 37 -238 103 -156 92 -236 106 -331 57 -35 -19 -38 -19 -33 -3 16 52 46
198 56 273 15 113 5 212 -36 341 -10 29 117 134 231 191 148 74 291 92 404 49z
m511 -30 c0 -49 30 -192 62 -291 27 -83 51 -146 112 -291 15 -35 14 -37 -16
-73 -57 -69 -90 -79 -293 -86 -158 -6 -185 -9 -222 -28 l-42 -22 -11 58 c-23
115 -41 189 -66 271 -21 68 -24 95 -19 150 12 122 4 112 116 150 95 33 225 99
314 161 52 37 65 37 65 1z m-1625 -183 c59 -30 192 -73 255 -82 25 -4 57 -9
71 -12 l25 -5 -23 -70 c-32 -94 -50 -230 -58 -431 l-7 -167 -29 -6 c-34 -8
-133 16 -191 46 -24 12 -76 44 -117 71 -40 28 -94 59 -119 70 -47 21 -127 27
-170 14 l-22 -7 26 58 c98 216 137 347 156 529 l12 112 71 -48 c38 -26 93 -59
120 -72z m395 -175 c0 -100 -20 -193 -59 -273 l-31 -65 6 95 c11 180 44 320
74 320 6 0 10 -34 10 -77z m95 57 c9 -15 7 -260 -3 -295 -8 -27 -14 -31 -61
-38 -29 -5 -54 -7 -56 -5 -2 2 5 32 15 66 11 36 23 111 26 172 l7 110 33 0
c18 0 36 -5 39 -10z m680 -321 c33 -158 33 -159 -9 -159 -30 0 -34 4 -40 31
-3 17 -6 97 -5 178 0 138 1 144 15 107 7 -21 25 -92 39 -157z m716 -168 c39
-113 17 -238 -58 -321 -91 -102 -294 -153 -411 -105 -60 24 -116 92 -135 162
-26 96 -49 223 -43 239 13 34 76 47 236 49 192 2 228 12 295 80 l50 50 24 -50
c13 -27 32 -74 42 -104z m-1414 127 c-2 -7 -26 -97 -52 -200 -51 -200 -54
-205 -106 -178 -17 10 -19 22 -19 131 0 113 2 123 30 180 33 64 52 77 114 78
26 1 37 -3 33 -11z m-670 -127 c23 -11 76 -43 118 -71 124 -84 177 -104 267
-105 l78 0 0 -40 c0 -57 -26 -152 -57 -205 -66 -115 -165 -160 -348 -160 -162
0 -280 37 -327 102 -34 48 -31 187 6 311 37 125 58 162 98 174 52 17 119 14
165 -6z m908 -55 c28 -12 84 -44 125 -70 79 -49 180 -86 236 -86 l34 0 -5 -87
c-14 -226 -22 -253 -96 -317 -52 -44 -129 -74 -230 -89 -69 -10 -86 -8 -165
11 -172 42 -236 140 -219 334 6 69 46 262 56 273 2 2 24 15 49 29 60 35 144
36 215 2z"/>
<path d="M2440 5405 c-20 -24 -4 -42 42 -47 94 -11 171 -92 189 -199 16 -91
18 -97 29 -79 15 23 12 131 -5 188 -19 63 -57 109 -110 133 -49 23 -128 25
-145 4z"/>
<path d="M2359 5266 c-49 -17 -84 -44 -145 -108 -87 -92 -127 -195 -126 -323
1 -218 145 -319 330 -229 63 31 133 111 174 202 l29 63 30 -25 c39 -33 61 -34
25 -1 -33 31 -33 39 3 32 15 -3 41 -3 55 1 26 7 25 8 -21 21 l-48 13 40 14
c38 14 85 50 85 65 0 4 -21 1 -47 -7 -25 -8 -57 -14 -69 -14 -25 0 -26 4 -39
85 -10 57 -34 126 -57 158 -42 59 -137 82 -219 53z m137 -35 c84 -38 130 -145
122 -282 -4 -64 -11 -89 -44 -155 -22 -42 -45 -79 -52 -82 -9 -3 -10 3 -2 23
13 34 13 86 -1 122 -53 141 -259 104 -305 -54 -24 -83 -13 -138 39 -187 l40
-38 -34 7 c-85 18 -144 89 -158 188 -27 202 93 419 257 463 65 17 90 17 138
-5z m-14 -340 c24 -27 28 -40 28 -94 0 -77 -21 -122 -76 -160 -81 -56 -163
-46 -200 25 -26 50 -16 146 20 193 61 79 173 97 228 36z"/>
<path d="M1828 4141 c-50 -26 -72 -63 -76 -134 -6 -99 62 -277 106 -277 33 0
161 69 208 112 113 103 112 238 -2 238 -22 0 -49 -7 -61 -15 -20 -14 -22 -13
-33 19 -19 59 -86 86 -142 57z m77 -23 c27 -12 55 -54 55 -83 0 -19 -2 -19 45
5 47 24 64 25 93 4 17 -12 22 -25 22 -58 0 -75 -70 -150 -202 -217 l-58 -29
-14 22 c-92 141 -99 316 -14 353 41 18 41 18 73 3z"/>
</g>
</svg>
